<svg xmlns="http://www.w3.org/2000/svg" width="237.22" height="18.68" viewBox="0 0 62.77 4.94"><path d="M0 4.86h.5l.55-1.28h2.61l.56 1.28h.53L2.7.08h-.58zM2.37.53L3.5 3.17H1.25L2.37.53zm3.24 4.33h1.02c.28 0 .53-.02.77-.07s.45-.12.63-.22c.39-.2.58-.56.6-1.07-.01-.32-.11-.58-.31-.77-.2-.19-.46-.31-.8-.37v-.01c.63-.12.94-.48.94-1.1 0-.44-.17-.75-.5-.93C7.66.16 7.28.08 6.84.08H5.61zm.5-2.28h.46c.19 0 .38 0 .57.02.18.02.35.06.5.12a.8.8 0 0 1 .35.28c.08.13.12.3.13.52a.8.8 0 0 1-.13.46.85.85 0 0 1-.34.29 2.76 2.76 0 0 1-1 .19h-.54zM6.13.49h.7c.11 0 .24 0 .37.02s.25.06.36.11c.12.06.21.14.29.24.07.1.1.24.1.42 0 .19-.04.34-.11.45a.8.8 0 0 1-.3.28 2.23 2.23 0 0 1-.83.16h-.58zm7.32 3.88a4.03 4.03 0 0 1-1.1.17c-.68 0-1.2-.2-1.56-.59a2.04 2.04 0 0 1-.54-1.48c0-.6.18-1.1.55-1.48.36-.38.88-.57 1.55-.58a2.4 2.4 0 0 1 1.32.26l.07-.44c-.19-.08-.41-.15-.67-.18a6.3 6.3 0 0 0-.72-.05c-.81.01-1.44.24-1.9.69-.47.45-.7 1.04-.7 1.78 0 .75.23 1.35.7 1.79.44.44 1.08.67 1.9.68.56 0 1.09-.09 1.6-.29V2.28h-1.7v.4h1.2v1.69zm1.44.49h.5l.55-1.28h2.61l.56 1.28h.53L17.6.08h-.58L14.9 4.86zM17.26.53l1.12 2.64h-2.24zm3.22 4.33h.5V.74H21l2.58 4.12h.7V.08h-.52v4.2L21.11.09h-.64zm8.71-.5c-.13.07-.3.12-.5.13-.23.03-.42.05-.6.05-.68 0-1.2-.2-1.55-.59a2.04 2.04 0 0 1-.55-1.48c0-.6.19-1.1.55-1.48.36-.38.88-.57 1.55-.58a2.4 2.4 0 0 1 1.32.26l.07-.44c-.19-.08-.4-.15-.67-.18A6.3 6.3 0 0 0 28.1 0c-.8.01-1.44.24-1.9.69-.46.45-.7 1.04-.7 1.78 0 .75.23 1.35.7 1.79.45.44 1.08.67 1.9.68.56 0 1.1-.09 1.6-.29V2.28H28v.4h1.2zm1.84-.1l-.05.48c.28.12.67.2 1.17.2.43 0 .81-.1 1.16-.31.35-.22.53-.56.54-1.04 0-.18-.03-.33-.1-.47a1.25 1.25 0 0 0-.27-.36c-.23-.2-.5-.38-.82-.52a36.62 36.62 0 0 1-.43-.22 3.46 3.46 0 0 1-.39-.22.97.97 0 0 1-.26-.26.5.5 0 0 1-.1-.3.71.71 0 0 1 .36-.66c.11-.06.24-.11.36-.14a2.44 2.44 0 0 1 1.34.14l.08-.42a3.9 3.9 0 0 0-.54-.13A5.44 5.44 0 0 0 32.6 0c-.46 0-.84.11-1.15.33-.32.22-.48.53-.48.92 0 .3.13.55.37.74a4.96 4.96 0 0 0 1.25.74l.38.24c.24.16.36.35.37.59 0 .33-.12.58-.33.74-.23.16-.5.24-.83.24-.47 0-.86-.1-1.15-.29zm3.49.6h3.32v-.4H35L37.76.48V.1h-3.17v.4h2.62l-2.69 3.96zm4.3 0h2.62v-.4h-2.1V2.6h1.91V2.2h-1.92V.5h2.02V.07h-2.52zM46.37.08h-.51V3.2c0 .4-.12.72-.34.96-.23.25-.57.38-1.03.39-.44 0-.78-.14-1.01-.39a1.33 1.33 0 0 1-.35-.96V.1h-.5v3.1c-.01.35.05.63.18.86.12.23.28.42.47.54.2.13.4.22.61.27.22.05.42.08.6.08.2 0 .4-.03.63-.08.2-.05.4-.14.6-.27.19-.12.35-.3.47-.54.11-.22.17-.51.18-.86zm4.94 4.29a4.04 4.04 0 0 1-1.1.17c-.68 0-1.2-.2-1.56-.59a2.04 2.04 0 0 1-.54-1.48c0-.6.18-1.1.55-1.48.36-.38.88-.57 1.55-.58a2.4 2.4 0 0 1 1.32.26l.07-.44c-.19-.08-.41-.15-.67-.18A6.3 6.3 0 0 0 50.2 0c-.81.01-1.44.24-1.9.69-.47.45-.7 1.04-.7 1.78 0 .75.23 1.35.7 1.79.44.44 1.08.67 1.9.68.56 0 1.1-.09 1.6-.29V2.28h-1.7v.4h1.2zm1.92.49h.5V.74h.02l2.59 4.12H57V.08h-.5v4.2h-.02L53.86.09h-.64v4.78zm5.1 0h.51V.08h-.5zm1.63-.6l-.05.48c.28.12.67.2 1.17.2.43 0 .81-.1 1.16-.31.34-.22.52-.56.54-1.04 0-.18-.04-.33-.1-.47a1.25 1.25 0 0 0-.27-.36c-.24-.2-.5-.38-.82-.52a33.94 33.94 0 0 1-.82-.44.96.96 0 0 1-.26-.26.5.5 0 0 1-.1-.3.7.7 0 0 1 .36-.66c.11-.06.23-.11.36-.14a2.44 2.44 0 0 1 1.33.14l.09-.42A3.9 3.9 0 0 0 62 .03a5.44 5.44 0 0 0-.48-.03c-.46 0-.85.11-1.15.33-.32.22-.48.53-.48.92 0 .3.12.55.37.74a5.02 5.02 0 0 0 1.25.74l.38.24c.24.16.36.35.37.59 0 .33-.12.58-.34.74-.22.16-.5.24-.82.24-.48 0-.86-.1-1.15-.29" fill="#003258"/></svg>