<?xml version="1.0" encoding="UTF-8" standalone="no"?>
<svg
   xmlns:dc="http://purl.org/dc/elements/1.1/"
   xmlns:cc="http://creativecommons.org/ns#"
   xmlns:rdf="http://www.w3.org/1999/02/22-rdf-syntax-ns#"
   xmlns:svg="http://www.w3.org/2000/svg"
   xmlns="http://www.w3.org/2000/svg"
   xmlns:sodipodi="http://sodipodi.sourceforge.net/DTD/sodipodi-0.dtd"
   xmlns:inkscape="http://www.inkscape.org/namespaces/inkscape"
   clip-path="url(#a)"
   height="19.43"
   preserveAspectRatio="xMidYMid"
   version="1.2"
   viewBox="0 0 6296.2987 514.09496"
   width="237.9635"
   id="svg13"
   sodipodi:docname="asz.svg"
   style="fill-rule:evenodd;stroke-width:28.21999931;stroke-linejoin:round"
   inkscape:version="0.92.2 2405546, 2018-03-11">
  <metadata
     id="metadata17">
    <rdf:RDF>
      <cc:Work
         rdf:about="">
        <dc:format>image/svg+xml</dc:format>
        <dc:type
           rdf:resource="http://purl.org/dc/dcmitype/StillImage" />
        <dc:title></dc:title>
      </cc:Work>
    </rdf:RDF>
  </metadata>
  <sodipodi:namedview
     pagecolor="#ffffff"
     bordercolor="#666666"
     borderopacity="1"
     objecttolerance="10"
     gridtolerance="10"
     guidetolerance="10"
     inkscape:pageopacity="0"
     inkscape:pageshadow="2"
     inkscape:window-width="1443"
     inkscape:window-height="753"
     id="namedview15"
     showgrid="false"
     fit-margin-top="0"
     fit-margin-left="0"
     fit-margin-right="0"
     fit-margin-bottom="0"
     inkscape:zoom="2.9779059"
     inkscape:cx="-9.4014467"
     inkscape:cy="5.0999474"
     inkscape:window-x="0"
     inkscape:window-y="27"
     inkscape:window-maximized="0"
     inkscape:current-layer="svg13" />
  <defs
     class="ClipPathGroup"
     id="defs5">
    <clipPath
       id="a">
      <path
         d="M 0,0 H 21000 V 29700 H 0 Z"
         id="path2"
         inkscape:connector-curvature="0" />
    </clipPath>
  </defs>
  <g
     class="SlideGroup"
     id="g11"
     transform="matrix(1.9049214,0,0,1.9049214,0.05714764,-0.00137794)">
    <g
       class="Page"
       id="g9">
      <path
         d="M 253.26,265.29 141.08,4.59 H 111.8 L -0.03,265.29 h 27.51 l 38.1,-87.84 h 121.36 l 37.75,87.84 z M 176.71,153.8 H 75.46 L 126.61,34.2 Z m 272.43,36.69 c 0,-31.75 -13.41,-51.86 -43.75,-64.2 20.11,-11.3 28.93,-28.23 28.93,-53.98 0,-44.8 -25.75,-67.73 -89.25,-67.73 h -61.03 v 260.7 h 64.55 c 72.32,0 100.55,-23.29 100.55,-74.8 z m -26.46,1.41 c 0,37.75 -23.64,49.74 -76.9,49.74 H 310.14 V 140.41 h 31.05 c 46.21,0 81.49,2.82 81.49,51.5 z M 407.86,72.67 c 0,32.81 -16.93,44.1 -65.97,44.1 H 310.14 V 28.22 h 31.4 c 52.56,0 66.32,12.7 66.32,44.45 z m 219.86,119.95 c 0,-22.93 -9.53,-43.4 -26.1,-55.74 -10.59,-7.76 -21.53,-12.7 -48.34,-20.82 -23.63,-7.05 -31.75,-10.23 -38.45,-16.22 -7.4,-6.35 -12.35,-18.35 -12.35,-30.34 0,-26.1 19.05,-45.51 45.16,-45.51 26.46,0 46.56,18.34 46.56,46.57 h 27.17 C 621.37,28.22 591.03,0 548.34,0 c -41.98,0 -72.32,29.63 -72.32,70.2 0,18 6.7,35.28 18.35,46.22 10.23,9.87 18.34,13.76 48.68,22.93 44.8,13.76 58.21,26.1 58.21,54.68 0,29.98 -21.87,51.86 -51.5,51.86 -29.29,0 -50.45,-18.7 -54.33,-53.63 h -27.87 c 2.47,46.92 34.57,77.62 81.49,77.62 45.15,0 78.67,-32.81 78.67,-77.26 z m 279.41,4.23 h -28.92 c -27.52,34.57 -52.57,49.04 -90.67,49.04 -60.32,0 -110.06,-50.1 -110.06,-111.13 C 677.48,71.96 725.1,24 787.19,24 c 36.69,0 67.38,13.4 89.6,48.33 h 29.29 C 885.97,27.52 840.1,0 786.13,0 708.53,0 651.02,57.86 651.02,135.82 c 0,76.2 58.91,134.06 136.88,134.06 52.91,0 93.13,-24.7 119.23,-73.03 z m 229.13,68.44 V 4.59 h -26.1 V 119.24 H 975.04 V 4.59 h -26.1 v 260.7 h 26.1 V 142.88 h 135.12 v 122.4 z m 187.9,0 V 241.65 H 1216.2 V 4.6 h -26.1 v 260.7 z m 197.72,-98.07 V 4.59 h -26.1 v 162.63 c 0,53.27 -22.23,78.67 -62.44,78.67 -40.93,0 -62.8,-25.4 -62.8,-78.67 V 4.59 h -26.1 v 162.63 c 0,70.9 35.98,102.66 88.54,102.66 52.92,0 88.9,-31.75 88.9,-102.66 z m 194.49,25.4 c 0,-22.93 -9.53,-43.4 -26.1,-55.74 -10.59,-7.76 -21.53,-12.7 -48.34,-20.82 -23.63,-7.05 -31.75,-10.23 -38.45,-16.22 -7.4,-6.35 -12.35,-18.35 -12.35,-30.34 0,-26.1 19.05,-45.51 45.16,-45.51 26.46,0 46.56,18.34 46.56,46.57 h 27.17 C 1710.02,28.22 1679.68,0 1636.99,0 c -41.98,0 -72.32,29.63 -72.32,70.2 0,18 6.7,35.28 18.35,46.22 10.23,9.87 18.34,13.76 48.68,22.93 44.8,13.76 58.21,26.1 58.21,54.68 0,29.98 -21.87,51.86 -51.5,51.86 -29.29,0 -50.45,-18.7 -54.33,-53.63 h -27.87 c 2.47,46.92 34.57,77.62 81.49,77.62 45.15,0 78.67,-32.81 78.67,-77.26 z m 175.7,0 c 0,-22.93 -9.53,-43.4 -26.1,-55.74 -10.59,-7.76 -21.53,-12.7 -48.34,-20.82 -23.63,-7.05 -31.75,-10.23 -38.45,-16.22 -7.4,-6.35 -12.35,-18.35 -12.35,-30.34 0,-26.1 19.05,-45.51 45.16,-45.51 26.46,0 46.56,18.34 46.56,46.57 h 27.17 C 1885.72,28.22 1855.38,0 1812.69,0 c -41.98,0 -72.32,29.63 -72.32,70.2 0,18 6.7,35.28 18.35,46.22 10.23,9.87 18.34,13.76 48.68,22.93 44.8,13.76 58.21,26.1 58.21,54.68 0,29.98 -21.87,51.86 -51.5,51.86 -29.29,0 -50.45,-18.7 -54.33,-53.63 h -27.87 c 2.47,46.92 34.57,77.62 81.49,77.62 45.15,0 78.67,-32.81 78.67,-77.26 z m 175,72.67 v -23.64 h -131.6 L 2063.18,28.22 V 4.6 h -153.46 v 23.63 h 124.18 l -128.06,213.43 v 23.64 z m 171.6,0 v -23.64 h -116.4 v -96.3 H 2234.8 V 121.7 H 2122.26 V 28.22 h 116.42 V 4.6 h -142.52 v 260.7 h 142.52 z m 223.72,-98.07 V 4.59 h -26.1 v 162.63 c 0,53.27 -22.23,78.67 -62.44,78.67 -40.93,0 -62.8,-25.4 -62.8,-78.67 V 4.59 h -26.1 v 162.63 c 0,70.9 35.98,102.66 88.54,102.66 52.92,0 88.9,-31.75 88.9,-102.66 z m 319.73,-22.23 h -177.1 v 23.64 h 145.7 c -9.53,41.27 -53.98,77.26 -105.48,77.26 -63.86,0 -114.3,-48.69 -114.3,-110.78 0,-62.8 49.74,-111.12 113.94,-111.12 40.22,0 74.09,18.34 92.08,50.1 h 29.28 C 2748.95,29.62 2699.57,0 2642.77,0 c -77.61,0 -138.3,58.91 -138.3,134.4 0,76.2 62.1,135.48 141.83,135.48 76.55,0 131.94,-59.27 135.82,-124.89 z m 248.38,120.3 V 4.59 h -26.1 V 220.84 L 2858.35,4.59 h -35.28 v 260.7 h 26.1 V 35.99 l 155.23,229.3 z m 79.81,0 V 4.59 h -26.1 v 260.7 z m 194.94,-72.67 c 0,-22.93 -9.53,-43.4 -26.1,-55.74 -10.6,-7.76 -21.53,-12.7 -48.34,-20.82 -23.64,-7.05 -31.75,-10.23 -38.45,-16.22 -7.41,-6.35 -12.35,-18.35 -12.35,-30.34 0,-26.1 19.05,-45.51 45.16,-45.51 26.45,0 46.56,18.34 46.56,46.57 h 27.17 C 3298.9,28.22 3268.56,0 3225.87,0 c -41.98,0 -72.32,29.63 -72.32,70.2 0,18 6.7,35.28 18.35,46.22 10.23,9.87 18.34,13.76 48.68,22.93 44.8,13.76 58.2,26.1 58.2,54.68 0,29.98 -21.86,51.86 -51.5,51.86 -29.28,0 -50.44,-18.7 -54.33,-53.63 h -27.87 c 2.47,46.92 34.58,77.62 81.5,77.62 45.15,0 78.67,-32.81 78.67,-77.26 z"
         font-weight="400"
         font-size="728.28"
         letter-spacing="0"
         word-spacing="0"
         id="path7"
         inkscape:connector-curvature="0"
         style="font-weight:400;font-size:728.2800293px;font-family:'TeX Gyre Adventor';letter-spacing:0;word-spacing:0;fill:#003258;stroke-width:1;stroke-linejoin:miter" />
    </g>
  </g>
</svg>
