<svg xmlns="http://www.w3.org/2000/svg" clip-path="url(#a)" height="19.43" preserveAspectRatio="xMidYMid" version="1.2" viewBox="0 0 2835.68 548.34" width="100.48" fill-rule="evenodd" stroke-width="28.22" stroke-linejoin="round"><defs class="ClipPathGroup"><clipPath id="a"><path d="M0 0h21000v29700H0z"/></clipPath></defs><g class="SlideGroup"><g class="Slide" clip-path="url(#a)" transform="translate(-2182.7 -14344.06) scale(.9688)"><g class="Page"><g class="Graphic"><path d="M2253 15362h354v-47h-295l286-453v-46h-338v46h280l-287 453zm446 0h279v-47h-224v-211h204v-46h-204v-196h214v-46h-269zm790-546h-54v355c0 45-12 82-36 110-25 29-61 43-110 43-47 0-83-14-108-43-25-28-37-65-37-110v-355h-54v355c0 39 6 72 20 99 13 27 30 47 50 61 20 15 42 25 65 31s44 10 64 10c21 0 44-4 67-10 22-6 44-16 65-31 20-14 36-34 49-61 12-27 19-60 19-99zm510 490c-14 7-32 11-54 13-24 4-44 5-63 5-73 0-128-22-166-66-38-43-58-99-58-170 0-69 20-125 59-168 38-44 93-65 165-67 25 0 49 2 73 5 24 4 47 12 67 24l7-50c-19-9-42-16-70-21-29-3-54-5-77-5-86 1-154 27-203 78-50 52-75 120-75 204 0 87 25 154 74 206 49 50 117 76 204 78 59 0 117-11 170-34v-272h-181v47h128zm185 56h55v-472h1l276 472h73v-546h-54v481h-1l-281-481h-69zm528 0h55v-546h-55zm168-69l-5 55c29 14 71 22 124 24 46 0 87-13 124-37s56-63 57-118c0-20-3-38-10-54s-17-29-29-41c-25-24-54-43-87-59-16-9-31-17-46-26-15-8-29-16-41-25s-21-18-28-29c-8-10-12-22-12-36 0-18 4-33 12-46 7-12 16-21 27-28 12-8 25-13 39-16 14-2 28-4 42-4 40 0 73 7 100 20l9-49c-19-7-38-12-58-15-19-2-36-3-51-3-49 1-90 13-123 38s-50 60-51 105c1 34 14 62 39 85 13 12 26 22 42 32 14 10 30 19 45 27 16 8 32 17 47 25 15 9 29 18 40 27 26 19 39 41 40 67-1 38-13 67-36 85s-53 27-88 27c-50 0-91-11-122-31z" fill="#003258"/><path d="M2233 15372h654z" fill="#0ff"/></g></g></g></g></svg>